HIERARCHY
ROOT hip
{
	OFFSET 0.000000 0.000000 0.000000 
	CHANNELS 6 Xposition Yposition Zposition Xrotation Zrotation Yrotation
	JOINT abdomen
	{
		OFFSET 0.000000 3.402643 0.000000 
		CHANNELS 3 Xrotation Zrotation Yrotation
		JOINT chest
		{
			OFFSET 0.000000 8.438565 -0.680529 
			CHANNELS 3 Xrotation Zrotation Yrotation
			JOINT neck
			{
				OFFSET 0.000000 10.207942 -0.272212 
				CHANNELS 3 Xrotation Zrotation Yrotation
				JOINT head
				{
					OFFSET 0.000000 3.130431 0.000000 
					CHANNELS 3 Xrotation Zrotation Yrotation
					End Site
					{
						OFFSET 0.000000 3.130435 0.000000 
					}
				}
			}
			JOINT lCollar
			{
				OFFSET 3.470700 6.669187 -0.816635 
				CHANNELS 3 Yrotation Zrotation Xrotation
				JOINT lShldr
				{
					OFFSET 3.198488 0.000000 0.000000 
					CHANNELS 3 Zrotation Yrotation Xrotation
					JOINT lForeArm
					{
						OFFSET 10.139888 0.000000 0.000000 
						CHANNELS 3 Yrotation Zrotation Xrotation
						JOINT lHand
						{
							OFFSET 8.370511 0.000000 0.000000 
							CHANNELS 3 Zrotation Yrotation Xrotation
							End Site
							{
								OFFSET 4.083176 0.000000 0.000000 
							}
						}
					}
				}
			}
			JOINT rCollar
			{
				OFFSET -3.470700 6.669187 -0.816635 
				CHANNELS 3 Yrotation Zrotation Xrotation
				JOINT rShldr
				{
					OFFSET -3.198488 0.000000 0.000000 
					CHANNELS 3 Zrotation Yrotation Xrotation
					JOINT rForeArm
					{
						OFFSET -10.139888 0.000000 0.000000 
						CHANNELS 3 Yrotation Zrotation Xrotation
						JOINT rHand
						{
							OFFSET -8.370511 0.000000 0.000000 
							CHANNELS 3 Zrotation Yrotation Xrotation
							End Site
							{
								OFFSET -4.083176 0.000000 0.000000 
							}
						}
					}
				}
			}
		}
	}
	JOINT lThigh
	{
		OFFSET 5.308129 -1.633274 1.361059 
		CHANNELS 3 Xrotation Zrotation Yrotation
		JOINT lShin
		{
			OFFSET -2.041588 -20.007561 0.000000 
			CHANNELS 3 Xrotation Zrotation Yrotation
			JOINT lFoot
			{
				OFFSET 0.000000 -19.190928 -1.224953 
				CHANNELS 3 Xrotation Yrotation Zrotation
				End Site
				{
					OFFSET 0.000000 -2.449906 4.627600 
				}
			}
		}
	}
	JOINT rThigh
	{
		OFFSET -5.308129 -1.633274 1.361059 
		CHANNELS 3 Xrotation Zrotation Yrotation
		JOINT rShin
		{
			OFFSET 2.041588 -20.007561 0.000000 
			CHANNELS 3 Xrotation Zrotation Yrotation
			JOINT rFoot
			{
				OFFSET 0.000000 -19.190928 -1.224953 
				CHANNELS 3 Xrotation Yrotation Zrotation
				End Site
				{
					OFFSET 0.000000 -2.449906 4.627600 
				}
			}
		}
	}
}
MOTION
Frames: 6
Frame Time: 0.016667
-0.308355 42.988918 1.296817 -16.671301 0.729704 -24.193100 -21.730700 0.913997 2.883650 21.621201 0.927574 1.511530 7.409680 15.097800 -2.037530 8.535320 9.882480 -0.695939 2.000000 -2.000000 0.000000 6.148060 -27.888599 114.012001 70.156799 -0.261258 0.128649 0.074220 -0.077244 -165.701004 -2.000000 2.000000 0.000000 -12.137900 54.960800 111.926003 -66.758301 0.268799 0.125628 -0.060075 0.042291 -152.205002 0.048001 4.566267 9.057918 60.302834 2.021431 3.643768 19.554535 13.200112 -3.324871 3.937771 0.685363 11.568244 47.817921 -2.851750 -3.021580 -21.609032 -7.893091 -1.377585 
-0.216580 42.975281 1.250545 -14.972500 0.877375 -23.730700 -21.534000 0.769647 2.971520 21.240299 0.781194 1.523130 7.066960 16.546499 -3.191330 8.703530 10.454300 -1.187630 2.000000 -2.000000 0.000000 10.386200 -24.300800 106.851997 82.715401 -0.232185 0.135660 0.080299 -0.097168 -169.929001 -2.000000 2.000000 0.000000 -22.218000 50.722198 94.888199 -76.484901 0.246800 0.132938 -0.061679 0.047776 -154.246002 -2.972723 6.076678 9.496735 61.848614 1.827824 3.730907 21.054886 12.237164 -3.261690 3.576003 1.616243 11.775023 45.388237 -2.966492 -2.892748 -23.073164 -9.936039 -2.412157 
-0.051147 42.982876 1.138781 -13.106000 0.494586 -22.654200 -21.304001 0.873540 2.720020 20.693399 0.644529 1.427430 6.046780 16.901899 -4.192990 8.509520 10.730100 -1.622000 2.000000 -2.000000 0.000000 12.192300 -20.974600 99.616302 94.942001 -0.202230 0.155747 -179.925003 -179.906006 7.267770 -2.000000 2.000000 0.000000 -29.651300 45.564499 80.496696 -86.035698 0.224301 0.136398 -0.062706 0.050951 -155.436996 -6.507587 8.424520 9.412535 63.805599 1.618430 3.835420 22.630060 11.432582 -3.299587 3.462471 2.896326 11.784766 42.288155 -3.107242 -2.736995 -24.111801 -11.104362 -3.136078 
0.158679 42.996773 1.015497 -11.445300 0.114857 -21.351400 -21.032400 0.998593 2.608500 20.283199 0.429683 1.394430 5.001930 16.613501 -4.764930 8.132480 10.775000 -1.885500 2.000000 -2.000000 0.000000 11.837900 -19.033001 93.085899 106.065002 -0.174313 0.150567 -179.919998 -179.889999 4.484580 -2.000000 2.000000 0.000000 -33.705601 39.580898 69.152199 -95.381302 0.202943 0.116636 -0.064124 0.055003 -156.970993 -9.865661 10.477046 8.888535 65.682159 1.432615 3.917332 21.417212 10.106657 -2.523525 3.488527 4.152175 12.491667 39.151558 -3.277953 -2.543131 -24.671040 -12.531607 -3.914919 
0.381403 43.001915 0.901490 -9.814560 -0.269436 -19.728800 -21.108999 0.958790 2.697090 19.726601 -0.117175 1.427480 4.576990 15.746500 -4.864590 7.660790 10.460200 -2.061580 2.000000 -2.000000 0.000000 10.276900 -18.691401 88.639503 115.538002 -0.151699 0.141974 -179.916000 -179.893997 1.838090 -2.000000 2.000000 0.000000 -33.927399 33.703499 60.933300 -104.072998 0.183980 0.113386 -0.076078 0.060665 -159.138000 -13.052577 12.213526 7.913773 66.351326 1.332439 3.945536 13.158903 6.222179 0.023482 3.724972 5.515219 13.428823 35.897602 -3.401473 -2.363008 -25.511869 -14.751627 -5.131767 
0.626055 43.002052 0.793197 -8.652360 -0.106199 -18.548300 -20.959600 0.694325 2.881880 19.414000 -0.546766 1.475750 5.238630 14.766200 -4.395470 7.655490 10.070300 -1.941140 2.000000 -2.000000 0.000000 7.686040 -18.583599 85.911797 122.714996 -0.135679 0.133046 -179.903000 -179.891006 0.138879 -2.000000 2.000000 0.000000 -32.907700 29.698700 52.730000 -111.738998 0.167828 0.108168 -0.078604 0.066515 -161.414001 -15.392402 12.884721 7.361416 65.086891 1.394921 3.906487 6.616748 4.614160 0.981926 3.812408 6.120588 14.382097 33.374294 -3.532353 -2.180765 -26.517885 -17.286089 -6.682797 
